<svg width="96" height="96" xmlns="http://www.w3.org/2000/svg" xmlns:xlink="http://www.w3.org/1999/xlink" xml:space="preserve" overflow="hidden"><g transform="translate(-32 -263)"><path d="M122.6 299.3 117.4 297.4 117.4 286.5 122.6 284.3 87.4 271.3 44.6 286.3C40.5 288.3 40.4 293.8 40.4 298.3 40.4 299.8 40.6 301.3 40.9 302.7 37.5 304.9 37.4 310 37.4 314.3 37.4 317.8 38.2 321 40.4 323 39.9 324.7 40.2 326.8 40.2 329.3 40.2 333.8 41.4 337.9 45.4 339.3L73.2 350.8 122.4 330.4 117.2 328.5 117.2 317.5 122.4 315.3 114.4 312.3 114.4 302.7 122.6 299.3ZM45.8 293.3 73.6 304.2 113.5 288.1 113.5 296.7 73.6 313.3 45.8 302.3 45.8 293.3ZM113.3 327.8 73.4 344.3 45.5 333.3 45.5 325.5 70.4 335.7 113.4 318.7 113.3 327.8ZM110.5 312.8 70.6 329.3 42.8 318.3 42.8 309.3 71.4 320.7 110.6 304.3 110.6 312.8Z"/></g></svg>