<svg width="96" height="96" xmlns="http://www.w3.org/2000/svg" xmlns:xlink="http://www.w3.org/1999/xlink" xml:space="preserve" overflow="hidden"><g transform="translate(-54 -147)"><path d="M126.9 193.5C123.4 197.1 120.1 199.4 112.9 200.2 114.8 198.3 117 196.4 118.9 194.1 119.7 193.2 121.2 191.2 121.2 191.1 122.9 188.3 123.9 185.1 123.9 181.6L123.9 168.6 130.9 168.6 130.9 183.8C131 184 131.2 189 126.9 193.5ZM77.2 193.5C72.8 189 73 184 73 183.8L73 168.5 80 168.5 80 181.5C80 185 81 188.2 82.7 191 82.7 191.1 84.2 193.2 85 194 87 196.3 89.1 198.2 91 200.1 84 199.3 80.6 197 77.2 193.5ZM137 183.5 137 162.5 124 162.5 124 155.5 102 155.5 80 155.5 80 162.5 67 162.5 67 183.4C67 184.4 67 191.3 72.7 197.4 78.2 203.2 84.9 206.2 96.6 206.4 97.5 207.9 98 209.6 98 211.4L98 224.4 93 224.4C90.8 224.4 89 226.2 89 228.4L84 228.4C81.8 228.4 80 230.2 80 232.4L80 234.4 124 234.4 124 232.4C124 230.2 122.2 228.4 120 228.4L115 228.4C115 226.2 113.2 224.4 111 224.4L106 224.4 106 211.5C106 209.7 106.5 208 107.4 206.5 119.1 206.3 125.8 203.2 131.3 197.5 137 191.5 137 184.5 137 183.5Z"/></g></svg>