<svg width="96" height="96" xmlns="http://www.w3.org/2000/svg" xmlns:xlink="http://www.w3.org/1999/xlink" xml:space="preserve" overflow="hidden"><g transform="translate(-32 -417)"><path d="M61 443C62.7 443 64 441.7 64 440L64 434C64 432.3 62.7 431 61 431 59.3 431 58 432.3 58 434L58 440C58 441.7 59.3 443 61 443Z"/><path d="M52 485 68 485 68 493 52 493 52 485ZM52 473 68 473 68 481 52 481 52 473ZM52 461 68 461 68 469 52 469 52 461ZM88 461 88 469 72 469 72 461 88 461ZM108 461 108 469 92 469 92 461 108 461ZM108 481 92 481 92 473 108 473 108 481ZM108 493 92 493 92 485 108 485 108 493ZM72 481 72 473 88 473 88 481 72 481ZM72 493 72 485 88 485 88 493 72 493ZM46 499 114 499 114 455 46 455 46 499Z"/><path d="M99 443C100.7 443 102 441.7 102 440L102 434C102 432.3 100.7 431 99 431 97.3 431 96 432.3 96 434L96 440C96 441.7 97.3 443 99 443Z"/><path d="M106 437 106 440C106 443.9 102.9 447 99 447 95.1 447 92 443.9 92 440L92 437 68 437 68 440C68 443.9 64.9 447 61 447 57.1 447 54 443.9 54 440L54 437 46 437 46 451 114 451 114 437 106 437Z"/></g></svg>